<?xml version="1.0" encoding="UTF-8" standalone="no" ?>
<!DOCTYPE svg PUBLIC "-//W3C//DTD SVG 1.1//EN" "http://www.w3.org/Graphics/SVG/1.1/DTD/svg11.dtd">
<svg xmlns="http://www.w3.org/2000/svg" xmlns:xlink="http://www.w3.org/1999/xlink" version="1.1" width="900" height="70" viewBox="0 0 900 70" xml:space="preserve">
<desc>Created with Fabric.js 4.6.0</desc>
<defs>
</defs>
<g transform="matrix(1 0 0 1 450 32.17)" id="zFuLKb0xHP3Ztd_ciw-2n"  >
<path style="stroke: none; stroke-width: 1; stroke-dasharray: none; stroke-linecap: round; stroke-dashoffset: 0; stroke-linejoin: miter; stroke-miterlimit: 4; fill: rgb(132,146,255); fill-rule: nonzero; opacity: 1;" vector-effect="non-scaling-stroke"  transform=" translate(-450, -32.17)" d="M 0 52 L 30 48.3 C 60 44.7 120 37.3 180 36.8 C 240 36.3 300 42.7 360 47.5 C 420 52.3 480 55.7 540 59.3 C 600 63 660 67 720 62 C 780 57 840 43 870 36 L 900 29 L 900 0 L 870 0 C 840 0 780 0 720 0 C 660 0 600 0 540 0 C 480 0 420 0 360 0 C 300 0 240 0 180 0 C 120 0 60 0 30 0 L 0 0 Z" stroke-linecap="round" />
</g>
</svg>