<?xml version="1.0" encoding="UTF-8" standalone="no" ?>
<!DOCTYPE svg PUBLIC "-//W3C//DTD SVG 1.1//EN" "http://www.w3.org/Graphics/SVG/1.1/DTD/svg11.dtd">
<svg xmlns="http://www.w3.org/2000/svg" xmlns:xlink="http://www.w3.org/1999/xlink" version="1.1" width="450" height="435" viewBox="0 0 450 435" xml:space="preserve">
<desc>Created with Fabric.js 4.6.0</desc>
<defs>
</defs>
<g transform="matrix(1 0 0 1 225.45 -15.45)" id="yXIOA01Vd7iM9LQz3VYuo"  >
<g style="" vector-effect="non-scaling-stroke"   >
		<g transform="matrix(1 0 0 1 0 234.82)" id="GgshjiVGoFJAeNs_XjWvd"  >
<path style="stroke: none; stroke-width: 1; stroke-dasharray: none; stroke-linecap: butt; stroke-dashoffset: 0; stroke-linejoin: miter; stroke-miterlimit: 4; fill: rgb(132,146,255); fill-rule: nonzero; opacity: 1;" vector-effect="non-scaling-stroke"  transform=" translate(-225, -684.82)" d="M 0 568 L 10.7 544 C 21.3 520 42.7 472 64.2 468.8 C 85.7 465.7 107.3 507.3 128.8 516 C 150.3 524.7 171.7 500.3 193 501.5 C 214.3 502.7 235.7 529.3 257 532.7 C 278.3 536 299.7 516 321.2 506 C 342.7 496 364.3 496 385.8 508 C 407.3 520 428.7 544 439.3 556 L 450 568 L 450 901 L 439.3 901 C 428.7 901 407.3 901 385.8 901 C 364.3 901 342.7 901 321.2 901 C 299.7 901 278.3 901 257 901 C 235.7 901 214.3 901 193 901 C 171.7 901 150.3 901 128.8 901 C 107.3 901 85.7 901 64.2 901 C 42.7 901 21.3 901 10.7 901 L 0 901 Z" stroke-linecap="round" />
</g>
		<g transform="matrix(1 0 0 1 0 248.85)" id="RxskkN-rDvbMokvMLLzJ3"  >
<path style="stroke: none; stroke-width: 1; stroke-dasharray: none; stroke-linecap: butt; stroke-dashoffset: 0; stroke-linejoin: miter; stroke-miterlimit: 4; fill: rgb(109,118,236); fill-rule: nonzero; opacity: 1;" vector-effect="non-scaling-stroke"  transform=" translate(-225, -698.85)" d="M 0 509 L 10.7 504.3 C 21.3 499.7 42.7 490.3 64.2 503.3 C 85.7 516.3 107.3 551.7 128.8 570 C 150.3 588.3 171.7 589.7 193 599 C 214.3 608.3 235.7 625.7 257 626.3 C 278.3 627 299.7 611 321.2 606.3 C 342.7 601.7 364.3 608.3 385.8 611.5 C 407.3 614.7 428.7 614.3 439.3 614.2 L 450 614 L 450 901 L 439.3 901 C 428.7 901 407.3 901 385.8 901 C 364.3 901 342.7 901 321.2 901 C 299.7 901 278.3 901 257 901 C 235.7 901 214.3 901 193 901 C 171.7 901 150.3 901 128.8 901 C 107.3 901 85.7 901 64.2 901 C 42.7 901 21.3 901 10.7 901 L 0 901 Z" stroke-linecap="round" />
</g>
		<g transform="matrix(1 0 0 1 0 298.5)" id="-kHEMTKbWxSIj2Zg16QFr"  >
<path style="stroke: none; stroke-width: 1; stroke-dasharray: none; stroke-linecap: butt; stroke-dashoffset: 0; stroke-linejoin: miter; stroke-miterlimit: 4; fill: rgb(87,91,216); fill-rule: nonzero; opacity: 1;" vector-effect="non-scaling-stroke"  transform=" translate(-225, -748.5)" d="M 0 606 L 10.7 618.2 C 21.3 630.3 42.7 654.7 64.2 654.8 C 85.7 655 107.3 631 128.8 619.7 C 150.3 608.3 171.7 609.7 193 626 C 214.3 642.3 235.7 673.7 257 688 C 278.3 702.3 299.7 699.7 321.2 686.8 C 342.7 674 364.3 651 385.8 634.2 C 407.3 617.3 428.7 606.7 439.3 601.3 L 450 596 L 450 901 L 439.3 901 C 428.7 901 407.3 901 385.8 901 C 364.3 901 342.7 901 321.2 901 C 299.7 901 278.3 901 257 901 C 235.7 901 214.3 901 193 901 C 171.7 901 150.3 901 128.8 901 C 107.3 901 85.7 901 64.2 901 C 42.7 901 21.3 901 10.7 901 L 0 901 Z" stroke-linecap="round" />
</g>
		<g transform="matrix(1 0 0 1 0 335)" id="EtXHqEYPn9ljWnI5mby4T"  >
<path style="stroke: none; stroke-width: 1; stroke-dasharray: none; stroke-linecap: butt; stroke-dashoffset: 0; stroke-linejoin: miter; stroke-miterlimit: 4; fill: rgb(66,63,196); fill-rule: nonzero; opacity: 1;" vector-effect="non-scaling-stroke"  transform=" translate(-225, -785)" d="M 0 693 L 10.7 690.7 C 21.3 688.3 42.7 683.7 64.2 692.8 C 85.7 702 107.3 725 128.8 729.5 C 150.3 734 171.7 720 193 713.3 C 214.3 706.7 235.7 707.3 257 712 C 278.3 716.7 299.7 725.3 321.2 722.2 C 342.7 719 364.3 704 385.8 693.2 C 407.3 682.3 428.7 675.7 439.3 672.3 L 450 669 L 450 901 L 439.3 901 C 428.7 901 407.3 901 385.8 901 C 364.3 901 342.7 901 321.2 901 C 299.7 901 278.3 901 257 901 C 235.7 901 214.3 901 193 901 C 171.7 901 150.3 901 128.8 901 C 107.3 901 85.7 901 64.2 901 C 42.7 901 21.3 901 10.7 901 L 0 901 Z" stroke-linecap="round" />
</g>
		<g transform="matrix(1 0 0 1 0 373)" id="Mz_Ggu6sCR9rudW2wpJFf"  >
<path style="stroke: none; stroke-width: 1; stroke-dasharray: none; stroke-linecap: butt; stroke-dashoffset: 0; stroke-linejoin: miter; stroke-miterlimit: 4; fill: rgb(43,33,175); fill-rule: nonzero; opacity: 1;" vector-effect="non-scaling-stroke"  transform=" translate(-225, -823)" d="M 0 778 L 10.7 779.5 C 21.3 781 42.7 784 64.2 778.7 C 85.7 773.3 107.3 759.7 128.8 764.5 C 150.3 769.3 171.7 792.7 193 798.8 C 214.3 805 235.7 794 257 798.2 C 278.3 802.3 299.7 821.7 321.2 826.3 C 342.7 831 364.3 821 385.8 805 C 407.3 789 428.7 767 439.3 756 L 450 745 L 450 901 L 439.3 901 C 428.7 901 407.3 901 385.8 901 C 364.3 901 342.7 901 321.2 901 C 299.7 901 278.3 901 257 901 C 235.7 901 214.3 901 193 901 C 171.7 901 150.3 901 128.8 901 C 107.3 901 85.7 901 64.2 901 C 42.7 901 21.3 901 10.7 901 L 0 901 Z" stroke-linecap="round" />
</g>
</g>
</g>
</svg>