<?xml version="1.0" encoding="UTF-8"?>
<svg width="500" height="120" version="1.1" viewBox="0 0 500 120" xml:space="preserve" xmlns="http://www.w3.org/2000/svg">
<desc>Created with Fabric.js 4.6.0</desc>

<g id="iH8YVh3YwHACgwlw1mfND" transform="matrix(.52104 0 0 .52629 249.94 -21.914)">
<g vector-effect="non-scaling-stroke">
		<g id="DzMGynuPZYNvqawdG6hKH" transform="translate(0,159.45)">
<path transform="translate(-480,-429.45)" d="m0 369 22.8-12.3c22.9-12.4 68.5-37 114.2-38.7s91.3 19.7 137 24 91.3-8.3 137.2-7.7c45.8 0.7 91.8 14.7 137.6 16.5 45.9 1.9 91.5-8.5 137.2-13.6 45.7-5.2 91.3-5.2 137 1 45.7 6.1 91.3 18.5 114.2 24.6l22.8 6.2v172h-22.8-114.2-137-137.2-137.6-137.2-137-114.2-22.8z" fill="#8492ff" stroke-linecap="round" vector-effect="non-scaling-stroke"/>
</g>
		<g id="4QN8q-SYUlAcpWhPe16Di" transform="translate(0,166.45)">
<path transform="translate(-480,-436.45)" d="m0 338 22.8-2.3c22.9-2.4 68.5-7 114.2-0.4 45.7 6.7 91.3 24.7 137 34.2s91.3 10.5 137.2 15.3c45.8 4.9 91.8 13.5 137.6 13.7 45.9 0.2 91.5-8.2 137.2-10.5s91.3 1.3 137 3 91.3 1.3 114.2 1.2l22.8-0.2v149h-22.8-114.2-137-137.2-137.6-137.2-137-114.2-22.8z" fill="#6d76ec" stroke-linecap="round" vector-effect="non-scaling-stroke"/>
</g>
		<g id="t3SIRBvYSd_yEB9APSc7w" transform="translate(0,192)">
<path transform="translate(-480,-462)" d="m0 388 22.8 6.3c22.9 6.4 68.5 19 114.2 19.2s91.3-12.2 137-18 91.3-5.2 137.2 3.2c45.8 8.3 91.8 24.3 137.6 31.6 45.9 7.4 91.5 6 137.2-0.5s91.3-18.1 137-26.8 91.3-14.3 114.2-17.2l22.8-2.8v158h-22.8-114.2-137-137.2-137.6-137.2-137-114.2-22.8z" fill="#575bd8" stroke-linecap="round" vector-effect="non-scaling-stroke"/>
</g>
		<g id="b2A0OdHRI6w44D7nnEQql" transform="translate(0,211)">
<path transform="translate(-480,-481)" d="m0 433 22.8-1.2c22.9-1.1 68.5-3.5 114.2 1.2s91.3 16.3 137 18.7c45.7 2.3 91.3-4.7 137.2-8 45.8-3.4 91.8-3 137.6-0.7 45.9 2.3 91.5 6.7 137.2 5s91.3-9.3 137-14.8 91.3-8.9 114.2-10.5l22.8-1.7v120h-22.8-114.2-137-137.2-137.6-137.2-137-114.2-22.8z" fill="#423fc4" stroke-linecap="round" vector-effect="non-scaling-stroke"/>
</g>
		<g id="YDG0QJftNSsCYTLZ65OFh" transform="translate(0,230.5)">
<path transform="translate(-480,-500.5)" d="m0 477 22.8 0.7c22.9 0.6 68.5 2 114.2-0.9 45.7-2.8 91.3-9.8 137-7.3s91.3 14.5 137.2 17.7c45.8 3.1 91.8-2.5 137.6-0.4 45.9 2.2 91.5 12.2 137.2 14.7s91.3-2.5 137-10.7c45.7-8.1 91.3-19.5 114.2-25.1l22.8-5.7v81h-22.8-114.2-137-137.2-137.6-137.2-137-114.2-22.8z" fill="#2b21af" stroke-linecap="round" vector-effect="non-scaling-stroke"/>
</g>
</g>
</g>
</svg>
